<?xml version="1.0" encoding="utf-8"?>
<svg version="1.1" id="TrustCaptcha" xmlns="http://www.w3.org/2000/svg"
     viewBox="0 0 428.2 428.2" xml:space="preserve">
  <path fill="currentColor" d="M393.8,110.2c-0.5-11.3-0.5-22-0.5-32.7c0-8.5-6.9-15.4-15.4-15.4
    c-64,0-112.6-18.4-153.1-57.9c-6.1-5.6-15.4-5.6-21.5,0C162.9,43.6,114.2,62,50.2,62.1c-8.5,0-15.4,6.9-15.4,15.4
    c0,10.7,0,21.5-0.5,32.7c-2,107.5-5.1,255,174.6,316.9l5.1,1l5.1-1C398.4,365.2,395.8,218.2,393.8,110.2z M202.2,258.9
    c-0.2,0.2-0.5,0.4-0.7,0.7c-3,2.4-6.4,3.8-10.4,3.8h-0.5c-4.1,0-8.2-2-10.8-5.1l-39.5-43.8c-4.4-4.9-4-12.5,0.9-16.9l5.2-4.6
    c4.9-4.4,12.4-3.9,16.8,0.9l21.2,23.5c4.5,5,12.2,5.3,17.1,0.7l65.3-62.1c4.8-4.6,12.4-4.3,17,0.5l4.7,5c4.5,4.8,4.2,12.3-0.6,16.9
    L202.2,258.9z"/>
</svg>
